# Blender 3.4.1
# www.blender.org
mtllib 20x20 Pyramid.mtl
o 20x20_Pyramid
v -4.000000 5.999996 -3.999999
v -4.000000 5.999995 4.000001
v -4.000000 7.999995 4.000001
v -4.000000 7.999996 -3.999999
v 4.000000 5.999996 -3.999999
v 4.000000 7.999996 -3.999999
v 4.000000 5.999995 4.000001
v 4.000000 7.999995 4.000001
v 6.000000 3.999997 -6.000000
v -6.000000 3.999997 -6.000000
v -6.000000 5.999997 -5.999999
v 6.000000 5.999997 -5.999999
v -6.000000 3.999995 6.000000
v -6.000000 5.999995 6.000001
v 6.000000 3.999995 6.000000
v 6.000000 5.999995 6.000001
v -8.000000 3.999995 8.000001
v 8.000000 3.999995 8.000001
v 8.000000 3.999997 -8.000000
v -8.000000 3.999997 -8.000000
v 8.000000 1.999997 -8.000000
v -8.000000 1.999997 -8.000000
v -8.000000 1.999995 8.000000
v 8.000000 1.999995 8.000000
v -10.000000 -0.000002 -10.000000
v -10.000000 -0.000006 10.000000
v -10.000000 1.999994 10.000000
v -10.000000 1.999998 -10.000000
v 10.000000 -0.000002 -10.000000
v 10.000000 1.999998 -10.000000
v 10.000000 -0.000006 10.000000
v 10.000000 1.999994 10.000000
vn -1.0000 -0.0000 -0.0000
vn -0.0000 -0.0000 -1.0000
vn -0.0000 -0.0000 1.0000
vn 1.0000 -0.0000 -0.0000
vn -0.0000 1.0000 -0.0000
vn -0.0000 -1.0000 -0.0000
vt 0.000000 600.000000
vt 800.000000 600.000000
vt -400.000000 -400.000000
vt 800.000000 600.000000
vt 0.000000 600.000000
vt 400.000000 -400.000000
vt 800.000000 800.000000
vt 0.000000 800.000000
vt 400.000000 -400.000000
vt 0.000000 800.000000
vt 800.000000 800.000000
vt -400.000000 -400.000000
vt -0.000000 600.000000
vt 800.000000 600.000000
vt -400.000000 400.000000
vt -0.000000 800.000000
vt 800.000000 800.000000
vt -400.000000 400.000000
vt 800.000000 600.000000
vt -0.000000 600.000000
vt 400.000000 400.000000
vt 800.000000 800.000000
vt -0.000000 800.000000
vt 400.000000 400.000000
vt -0.000000 400.000000
vt 1200.000000 400.000000
vt -600.000000 600.000000
vt 1200.000000 400.000000
vt 0.000000 400.000000
vt -600.000000 -600.000000
vt 1200.000000 600.000000
vt 0.000000 600.000000
vt -600.000000 -600.000000
vt -0.000000 600.000000
vt 1200.000000 600.000000
vt -600.000000 600.000000
vt 1200.000000 400.000000
vt 0.000000 400.000000
vt 600.000000 -600.000000
vt 1200.000000 600.000000
vt 0.000000 600.000000
vt 600.000000 -600.000000
vt -0.000000 400.000000
vt 1200.000000 400.000000
vt 600.000000 600.000000
vt -0.000000 600.000000
vt 1200.000000 600.000000
vt 600.000000 600.000000
vt 800.000000 -800.000000
vt 1600.000000 400.000000
vt 0.000000 400.000000
vt 800.000000 800.000000
vt -0.000000 400.000000
vt 1600.000000 400.000000
vt -800.000000 800.000000
vt -0.000000 400.000000
vt 1600.000000 400.000000
vt -800.000000 -800.000000
vt 1600.000000 400.000000
vt 0.000000 400.000000
vt -0.000000 200.000000
vt 1600.000000 200.000000
vt -800.000000 800.000000
vt 1600.000000 200.000000
vt 0.000000 200.000000
vt -800.000000 -800.000000
vt 1600.000000 200.000000
vt 0.000000 200.000000
vt 800.000000 -800.000000
vt -0.000000 200.000000
vt 1600.000000 200.000000
vt 800.000000 800.000000
vt 0.000000 0.000000
vt 2000.000000 0.000000
vt 1000.000000 1000.000000
vt 2000.000000 0.000000
vt 0.000000 0.000000
vt 1000.000000 -1000.000000
vt 2000.000000 200.000000
vt 0.000000 200.000000
vt 1000.000000 -1000.000000
vt 0.000000 200.000000
vt 2000.000000 200.000000
vt -1000.000000 -1000.000000
vt -0.000000 0.000000
vt 2000.000000 0.000000
vt -1000.000000 1000.000000
vt -0.000000 200.000000
vt 2000.000000 200.000000
vt -1000.000000 1000.000000
vt -0.000000 0.000000
vt 2000.000000 0.000000
vt -1000.000000 -1000.000000
vt -0.000000 200.000000
vt 2000.000000 200.000000
vt 1000.000000 1000.000000
s 0
usemtl Steel_-_Satin.001
f 1/1/1 2/4/1 4/10/1
f 4/10/1 2/4/1 3/7/1
f 5/13/2 1/2/2 6/16/2
f 6/16/2 1/2/2 4/11/2
f 2/5/3 7/19/3 3/8/3
f 3/8/3 7/19/3 8/22/3
f 7/20/4 5/14/4 8/23/4
f 8/23/4 5/14/4 6/17/4
f 8/24/5 6/18/5 3/9/5
f 3/9/5 6/18/5 4/12/5
f 9/25/2 10/28/2 12/34/2
f 12/34/2 10/28/2 11/31/2
f 10/29/1 13/37/1 11/32/1
f 11/32/1 13/37/1 14/40/1
f 15/43/4 9/26/4 16/46/4
f 16/46/4 9/26/4 12/35/4
f 13/38/3 15/44/3 14/41/3
f 14/41/3 15/44/3 16/47/3
f 2/6/5 14/42/5 7/21/5
f 7/21/5 14/42/5 16/48/5
f 7/21/5 16/48/5 12/36/5
f 2/6/5 1/3/5 14/42/5
f 14/42/5 1/3/5 11/33/5
f 11/33/5 1/3/5 5/15/5
f 11/33/5 5/15/5 12/36/5
f 12/36/5 5/15/5 7/21/5
f 18/52/5 15/45/5 17/49/5
f 17/49/5 15/45/5 13/39/5
f 17/49/5 13/39/5 10/30/5
f 18/52/5 19/55/5 15/45/5
f 15/45/5 19/55/5 9/27/5
f 9/27/5 19/55/5 20/58/5
f 9/27/5 20/58/5 10/30/5
f 10/30/5 20/58/5 17/49/5
f 21/61/2 22/64/2 19/56/2
f 19/56/2 22/64/2 20/59/2
f 22/65/1 23/67/1 20/60/1
f 20/60/1 23/67/1 17/50/1
f 24/70/4 21/62/4 18/53/4
f 18/53/4 21/62/4 19/57/4
f 23/68/3 24/71/3 17/51/3
f 17/51/3 24/71/3 18/54/3
f 25/73/1 26/76/1 28/82/1
f 28/82/1 26/76/1 27/79/1
f 29/85/2 25/74/2 30/88/2
f 30/88/2 25/74/2 28/83/2
f 31/91/4 29/86/4 32/94/4
f 32/94/4 29/86/4 30/89/4
f 26/77/3 31/92/3 27/80/3
f 27/80/3 31/92/3 32/95/3
f 24/72/5 23/69/5 27/81/5
f 27/81/5 23/69/5 22/66/5
f 27/81/5 22/66/5 28/84/5
f 28/84/5 22/66/5 21/63/5
f 28/84/5 21/63/5 30/90/5
f 30/90/5 21/63/5 24/72/5
f 30/90/5 24/72/5 32/96/5
f 32/96/5 24/72/5 27/81/5
f 31/93/6 26/78/6 29/87/6
f 29/87/6 26/78/6 25/75/6
